<svg width="600" height="600" viewBox="0 0 600 600" fill="none" xmlns="http://www.w3.org/2000/svg">
<g clip-path="url(#clip0_428_2)">
<rect width="600" height="600" fill="white"/>
<path d="M57.4482 150.879C62.0346 146.292 62.0355 138.854 57.4482 134.267C56.6747 133.493 55.8148 132.862 54.9069 132.348C44.2996 147.66 35.3188 163.752 27.9426 180.384L57.4482 150.879V150.879Z" fill="#8BB5CB"/>
<path d="M70.4834 111.862C70.9047 114.11 71.9791 116.258 73.718 117.997C78.3053 122.585 85.7425 122.585 90.3298 117.997L119.764 88.5632C124.353 83.9742 124.351 76.5387 119.764 71.9515C118.225 70.4122 116.362 69.4023 114.395 68.8956C105.617 75.8689 97.1312 83.3951 89.0138 91.5126C82.4573 98.069 76.2933 104.868 70.4834 111.862Z" fill="#8BB5CB"/>
<path d="M136.001 55.7146C140.588 60.3019 148.025 60.3019 152.612 55.7155L177.886 30.4413C162.992 37.0465 148.534 44.9329 134.682 54.1274C135.073 54.6838 135.505 55.2184 136.001 55.7146Z" fill="#8BB5CB"/>
<path d="M175.91 89.3161C180.497 93.9033 187.933 93.9033 192.521 89.3152L275.89 5.94614C262.929 6.89324 250.02 8.70897 237.251 11.3628L175.91 72.7044C171.323 77.2934 171.322 84.728 175.91 89.3161Z" fill="#8BB5CB"/>
<path d="M153.617 94.9987L127.679 120.937C123.092 125.524 123.093 132.958 127.68 137.546C132.267 142.133 139.703 142.133 144.289 137.547L170.227 111.609C174.813 107.022 174.813 99.5859 170.226 94.9996C165.639 90.4106 158.203 90.4123 153.617 94.9987Z" fill="#8BB5CB"/>
<path d="M105.969 142.647L37.3395 211.276C32.7522 215.864 32.7505 223.301 37.3377 227.888C41.9249 232.475 49.3622 232.473 53.9494 227.886L122.579 159.257C127.168 154.668 127.167 147.231 122.581 142.645C117.993 138.057 110.557 138.058 105.969 142.647Z" fill="#8BB5CB"/>
<path d="M28.2863 253.552C32.8735 248.965 32.8744 241.527 28.288 236.941C23.6999 232.352 16.2636 232.355 11.6763 236.942L8.86554 239.753C6.21262 252.521 4.39692 265.429 3.45069 278.39L28.2872 253.553L28.2863 253.552Z" fill="#8BB5CB"/>
<path d="M28.6313 326.715C33.2185 322.128 33.2194 314.692 28.6313 310.104C24.0441 305.516 16.6077 305.517 12.0205 310.105L3.27331 318.852C3.90907 328.828 5.03756 338.78 6.68408 348.663L28.6313 326.715Z" fill="#8BB5CB"/>
<path d="M145.787 176.339L41.4354 280.691C36.8481 285.278 36.8481 292.714 41.4354 297.301C46.0235 301.889 53.459 301.889 58.0462 297.302L162.398 192.95C166.986 188.362 166.985 180.927 162.397 176.339C157.811 171.751 150.376 171.75 145.787 176.339Z" fill="#8BB5CB"/>
<path d="M177.162 161.575C181.75 166.163 189.186 166.163 193.772 161.576L267.305 88.0427C271.894 83.4537 271.894 76.0182 267.306 71.4301C262.719 66.8429 255.283 66.8438 250.695 71.4319L177.162 144.965C172.575 149.552 172.575 156.987 177.162 161.575Z" fill="#8BB5CB"/>
<path d="M283.045 39.0804C278.457 43.6685 278.457 51.104 283.044 55.6912C287.632 60.2793 295.068 60.2785 299.656 55.6912L346.165 9.18224C336.28 7.53746 326.331 6.40636 316.352 5.77321L283.045 39.0804Z" fill="#8BB5CB"/>
<path d="M283.08 129.166C287.667 133.753 295.104 133.753 299.692 129.166L403.894 24.9632C395.707 21.801 387.407 19.0181 379.022 16.6137L283.081 112.555C278.494 117.142 278.493 124.579 283.08 129.166Z" fill="#8BB5CB"/>
<path d="M131.83 280.415C136.418 285.003 143.855 285.003 148.442 280.415L264.721 164.137C269.308 159.55 269.306 152.114 264.719 147.527C260.132 142.94 252.696 142.94 248.11 147.526L131.831 263.804C127.244 268.392 127.243 275.828 131.83 280.415Z" fill="#8BB5CB"/>
<path d="M111.724 317.135C116.312 312.547 116.311 305.11 111.724 300.523C107.137 295.936 99.7014 295.936 95.1133 300.524L23.4225 372.215C18.8352 376.802 18.8343 384.24 23.4207 388.826C28.0071 393.413 35.4461 393.413 40.0333 388.826L111.724 317.135Z" fill="#8BB5CB"/>
<path d="M279.716 206.938C284.304 211.526 291.74 211.526 296.327 206.939L428.163 75.1032C432.749 70.5169 432.749 63.0796 428.162 58.4924C423.575 53.9051 416.138 53.9069 411.552 58.4924L279.717 190.327C275.129 194.916 275.13 202.352 279.716 206.938Z" fill="#8BB5CB"/>
<path d="M246.836 223.208L217.401 252.643C212.814 257.23 212.815 264.666 217.401 269.253C221.989 273.84 229.425 273.841 234.012 269.254L263.447 239.819C268.034 235.232 268.034 227.795 263.446 223.208C258.86 218.621 251.423 218.621 246.836 223.208Z" fill="#8BB5CB"/>
<path d="M47.2442 456.022L201.163 302.103C205.751 297.516 205.75 290.079 201.162 285.492C196.575 280.905 189.14 280.905 184.552 285.492L35.2205 434.824C38.9191 442.014 42.9142 449.091 47.2442 456.022Z" fill="#8BB5CB"/>
<path d="M125.189 434.976C120.602 430.389 113.166 430.389 108.579 434.976L63.7759 479.779C68.5428 485.961 73.587 491.994 78.9111 497.866L125.19 451.587C129.776 447.001 129.777 439.564 125.189 434.976Z" fill="#8BB5CB"/>
<path d="M141.655 401.898C137.066 406.487 137.066 413.923 141.654 418.51C146.241 423.097 153.677 423.098 158.266 418.509L241.758 335.017C246.345 330.43 246.345 322.994 241.757 318.406C237.17 313.819 229.735 313.819 225.147 318.406L141.655 401.898Z" fill="#8BB5CB"/>
<path d="M256.185 303.981C260.772 308.568 268.209 308.568 272.796 303.981L298.733 278.045C303.321 273.456 303.32 266.02 298.733 261.433C294.145 256.846 286.709 256.846 282.122 261.434L256.186 287.37C251.598 291.957 251.597 299.394 256.185 303.981Z" fill="#8BB5CB"/>
<path d="M313.449 246.717C318.036 251.304 325.473 251.304 330.059 246.717L398.689 178.088C403.276 173.5 403.276 166.063 398.689 161.476C394.102 156.889 386.665 156.89 382.078 161.477L313.449 230.107C308.861 234.694 308.861 242.129 313.449 246.717Z" fill="#8BB5CB"/>
<path d="M485.533 74.6323C480.946 70.0451 473.51 70.0451 468.924 74.6314L418.236 125.32C413.649 129.907 413.649 137.342 418.236 141.929C422.823 146.517 430.26 146.517 434.847 141.93L485.535 91.2423C490.121 86.6559 490.121 79.2204 485.533 74.6323Z" fill="#8BB5CB"/>
<path d="M455.552 161.512C450.965 166.099 450.967 173.534 455.554 178.122C460.14 182.708 467.576 182.708 472.162 178.122L530.72 119.564C525.938 113.399 520.87 107.385 515.531 101.531L455.551 161.511L455.552 161.512Z" fill="#8BB5CB"/>
<path d="M426.137 190.926L321.787 295.277C317.198 299.866 317.199 307.302 321.787 311.889C326.373 316.475 333.808 316.475 338.397 311.887L442.747 207.536C447.336 202.948 447.335 195.512 442.749 190.926C438.163 186.338 430.726 186.338 426.137 190.926Z" fill="#8BB5CB"/>
<path d="M307.024 326.654C302.436 322.065 295.001 322.065 290.413 326.653L216.88 400.186C212.294 404.773 212.294 412.21 216.881 416.797C221.467 421.383 228.904 421.383 233.49 416.796L307.023 343.263C311.61 338.676 311.611 331.24 307.024 326.654Z" fill="#8BB5CB"/>
<path d="M201.14 449.146C205.729 444.557 205.727 437.122 201.142 432.536C196.554 427.948 189.119 427.947 184.53 432.536L99.0332 518.033C104.887 523.372 110.901 528.441 117.066 533.223L201.141 449.147L201.14 449.146Z" fill="#8BB5CB"/>
<path d="M274.615 432.569C270.027 427.982 262.591 427.985 258.004 432.572L151.345 539.23C146.758 543.818 146.757 551.254 151.344 555.84C151.623 556.119 151.912 556.379 152.211 556.624C153.395 557.295 154.581 557.958 155.772 558.612C159.896 560.05 164.659 559.137 167.955 555.84L274.614 449.182C279.202 444.595 279.202 437.156 274.615 432.569Z" fill="#8BB5CB"/>
<path d="M302.591 421.204L418.868 304.928C423.456 300.339 423.455 292.901 418.869 288.315C414.283 283.729 406.845 283.73 402.258 288.318L285.981 404.594C281.394 409.182 281.394 416.617 285.98 421.204C290.567 425.79 298.004 425.792 302.591 421.204Z" fill="#8BB5CB"/>
<path d="M433.731 273.452C438.318 278.039 445.756 278.039 450.341 273.453L522.035 201.76C526.621 197.174 526.619 189.736 522.033 185.15C517.446 180.564 510.01 180.564 505.425 185.15L433.731 256.843C429.145 261.43 429.145 268.865 433.731 273.452Z" fill="#8BB5CB"/>
<path d="M536.895 153.679C532.308 158.266 532.308 165.702 536.894 170.288C541.48 174.874 548.919 174.875 553.505 170.289L559.386 164.407C555.669 157.236 551.647 150.181 547.302 143.27L536.894 153.678L536.895 153.679Z" fill="#8BB5CB"/>
<path d="M462.156 538.975C457.567 534.387 450.132 534.391 445.546 538.977L413.308 571.215C431.143 563.604 448.383 554.16 464.739 542.87C464.166 541.453 463.304 540.124 462.156 538.975Z" fill="#8BB5CB"/>
<path d="M527.867 484.027C527.654 481.34 526.527 478.713 524.472 476.659C519.884 472.07 512.45 472.072 507.862 476.66L478.428 506.095C473.841 510.682 473.839 518.117 478.426 522.705C480.705 524.983 483.69 526.128 486.678 526.142C493.304 520.587 499.754 514.714 505.986 508.483C513.819 500.65 521.099 492.477 527.867 484.027Z" fill="#8BB5CB"/>
<path d="M540.71 443.811C536.123 448.398 536.122 455.833 540.709 460.42C541.572 461.284 542.538 461.986 543.568 462.524C553.458 447.582 561.833 431.936 568.717 415.804L540.71 443.811Z" fill="#8BB5CB"/>
<path d="M507.107 403.9C502.518 408.489 502.52 415.925 507.107 420.512C511.693 425.098 519.13 425.1 523.719 420.512L586.693 357.538C589.184 344.945 590.849 332.224 591.685 319.457C591.31 319.75 590.945 320.06 590.598 320.407L507.106 403.899L507.107 403.9Z" fill="#8BB5CB"/>
<path d="M475.488 468.746L501.426 442.808C506.012 438.221 506.011 430.784 501.424 426.198C496.838 421.611 489.4 421.61 484.814 426.196L458.876 452.134C454.289 456.721 454.292 464.158 458.878 468.744C463.465 473.33 470.901 473.333 475.488 468.746Z" fill="#8BB5CB"/>
<path d="M453.778 473.841C449.191 469.254 441.754 469.253 437.165 473.842L368.536 542.472C363.948 547.059 363.948 554.498 368.535 559.085C373.121 563.671 380.56 563.671 385.147 559.084L453.777 490.454C458.366 485.867 458.365 478.429 453.778 473.841Z" fill="#8BB5CB"/>
<path d="M359.482 568.137C354.895 563.55 347.457 563.551 342.87 568.138L316.812 594.195C329.629 593.36 342.4 591.695 355.04 589.193L359.482 584.75C364.07 580.162 364.069 572.724 359.482 568.137Z" fill="#8BB5CB"/>
<path d="M286.319 567.792C281.731 563.204 274.295 563.205 269.708 567.793L247.001 590.5C256.819 592.197 266.704 593.404 276.619 594.101L286.319 584.402C290.905 579.814 290.905 572.378 286.319 567.792Z" fill="#8BB5CB"/>
<path d="M420.084 434.025C415.496 429.437 408.063 429.437 403.474 434.025L299.122 538.378C294.535 542.965 294.535 550.4 299.122 554.988C303.709 559.575 311.144 559.574 315.731 554.987L420.083 450.635C424.672 446.046 424.671 438.611 420.084 434.025Z" fill="#8BB5CB"/>
<path d="M524.995 329.116C520.407 324.528 512.971 324.529 508.383 329.118L434.849 402.652C430.262 407.239 430.262 414.674 434.85 419.261C439.437 423.848 446.872 423.847 451.458 419.261L524.991 345.727C529.58 341.139 529.581 333.702 524.995 329.116Z" fill="#8BB5CB"/>
<path d="M540.731 296.768C536.143 301.356 536.143 308.791 540.73 313.379C545.317 317.966 552.753 317.964 557.34 313.377L591.601 279.116C590.901 269.202 589.695 259.317 587.998 249.499L540.73 296.767L540.731 296.768Z" fill="#8BB5CB"/>
<path d="M455.576 341.635L580.41 216.801C577.964 208.453 575.13 200.203 571.93 192.057L438.964 325.023C434.378 329.609 434.378 337.047 438.964 341.633C443.552 346.221 450.99 346.221 455.576 341.635Z" fill="#8BB5CB"/>
<path d="M418.298 362.301C413.711 357.713 406.274 357.714 401.686 362.302L295.027 468.962C290.44 473.549 290.441 480.985 295.027 485.572C299.615 490.16 307.051 490.16 311.638 485.572L418.297 378.913C422.887 374.325 422.886 366.889 418.298 362.301Z" fill="#8BB5CB"/>
<path d="M204.1 559.887C199.513 564.475 199.514 571.911 204.1 576.497C208.688 581.085 216.124 581.085 220.711 576.498L274.333 522.876C278.921 518.288 278.921 510.851 274.333 506.264C269.746 501.677 262.31 501.677 257.723 506.265L204.1 559.887Z" fill="#8BB5CB"/>
</g>
<defs>
<clipPath id="clip0_428_2">
<rect width="600" height="600" fill="white"/>
</clipPath>
</defs>
</svg>
